<svg xmlns="http://www.w3.org/2000/svg" height="30" width="30" viewBox="0 0 30 30"><title>Capa_1</title><desc>Created with Sketch.</desc><path d="M20.681 19.461c1.866-1.958 3.03-4.578 3.03-7.464 0-6.054-5.084-10.997-11.349-10.997-6.264 0-11.348 4.943-11.348 10.997s5.083 10.996 11.348 10.996c2.551 0 4.896-.812 6.796-2.189l8.438 8.177c.206.199.462.299.719.299s.531-.1.719-.299c.394-.381.394-1.012 0-1.41l-8.353-8.11zm-17.613-7.464c0-4.96 4.159-9.007 9.294-9.007 5.118 0 9.295 4.03 9.295 9.007 0 4.976-4.16 9.006-9.295 9.006s-9.294-4.047-9.294-9.006z" stroke="#002469" fill="#002469"/></svg>