<?xml version="1.0" encoding="utf-8"?>
<!-- Generator: Adobe Illustrator 19.2.1, SVG Export Plug-In . SVG Version: 6.00 Build 0)  -->
<svg version="1.1" id="Layer_1" xmlns="http://www.w3.org/2000/svg" xmlns:xlink="http://www.w3.org/1999/xlink" x="0px" y="0px"
	 viewBox="0 0 188 39" style="enable-background:new 0 0 188 39;" xml:space="preserve">
<style type="text/css">
	.st0{fill:#EC202E;}
	.st1{fill:#00377B;}
</style>
<g>
	<g>
		<g>
			<g>
				<path class="st0" d="M23.3,34.2c0,0.8,1,0.9,1.6,0.9h0.3c0.1,0,0.1,0,0.2,0c1.4-0.1,1.4-0.6,1.4-0.9c0-0.1,0-0.3,0-0.4v-0.1V5.3
					V5.2V4.8c0-0.8-1-0.9-1.6-0.9h-0.3c-0.6,0-1.6,0.1-1.6,0.9c0,0.2,0,0.3,0,0.5v28.4c0,0,0,0,0,0.1V34.2z"/>
				<path class="st0" d="M4.9,34.2c0,0.8,1,0.9,1.6,0.9h0.3c0.1,0,0.1,0,0.2,0c1.4-0.1,1.4-0.6,1.4-0.9c0-0.1,0-0.3,0-0.4v-0.1V5.3
					V5.2V4.8c0-0.8-1-0.9-1.6-0.9H6.4C5.8,3.9,4.9,4,4.9,4.8c0,0.2,0,0.3,0,0.5v28.4c0,0,0,0,0,0.1V34.2z"/>
				<path class="st0" d="M11,34.2c0,0.8,1,0.9,1.6,0.9h0.3c0.1,0,0.1,0,0.2,0c1.4-0.1,1.4-0.6,1.4-0.9c0-0.1,0-0.3,0-0.4v-0.1V5.3
					V5.2V4.8c0-0.8-1-0.9-1.6-0.9h-0.3C12,3.9,11,4,11,4.8c0,0.2,0,0.3,0,0.5v28.4c0,0,0,0,0,0.1V34.2z"/>
				<path class="st0" d="M17.1,34.2c0,0.8,1,0.9,1.6,0.9H19c0.1,0,0.1,0,0.2,0c1.4-0.1,1.4-0.6,1.4-0.9c0-0.1,0-0.3,0-0.4v-0.1V5.3
					V5.2V4.8c0-0.8-1-0.9-1.6-0.9h-0.3c-0.6,0-1.6,0.1-1.6,0.9c0,0.2,0,0.3,0,0.5v28.4c0,0,0,0,0,0.1V34.2z"/>
				<path class="st0" d="M1.1,17.8c-0.8,0-0.9,1-0.9,1.6v0.3c0,0.1,0,0.1,0,0.2c0.1,1.4,0.6,1.4,0.9,1.4c0.1,0,0.3,0,0.4,0h0.1H30
					h0.1h0.4c0.8,0,0.9-1,0.9-1.6v-0.3c0-0.6-0.1-1.6-0.9-1.6c-0.2,0-0.3,0-0.5,0H1.6c0,0,0,0-0.1,0H1.1z"/>
			</g>
		</g>
	</g>
	<g>
		<path class="st1" d="M74.4,6.3c-8.2,0-11.9,4.1-11.9,13.1c0,8.9,3.8,13.2,11.7,13.3h0.4c7.9,0,11.7-4.4,11.7-13.3
			C86.3,10.3,82.6,6.3,74.4,6.3z M74.4,28.8L74.4,28.8c-4.8,0-6.6-2.6-6.6-9.4c0-6.7,1.8-9.2,6.5-9.2h0.2c4.7,0,6.5,2.5,6.5,9.2
			C81,26.2,79.2,28.8,74.4,28.8z"/>
		<path class="st1" d="M41.4,30.7c1.7,1.3,3.9,1.8,7.6,1.8h0.1h0.1c3.7,0,6-0.5,7.6-1.8c2.4-1.8,2.8-4,2.8-8.1l0-14.8
			c0-0.2,0-0.5-0.2-0.7c-0.4-0.4-1.2-0.6-2.5-0.6c-1.3,0-2.1,0.2-2.5,0.6c-0.2,0.2-0.2,0.5-0.2,0.7v2.7v12.8c0,2.6,0,3.1-1.1,4.1
			c-1.1,0.9-2.7,1-3.9,1c-1.3,0-2.9-0.1-3.9-1c-1.1-0.9-1.1-1.5-1.1-4V7.8c0-0.2,0-0.5-0.2-0.7c-0.4-0.4-1.2-0.6-2.5-0.6
			c-1.3,0-2.1,0.2-2.5,0.6c-0.2,0.2-0.2,0.5-0.2,0.7l0,0.1v14.8C38.6,26.7,39,28.9,41.4,30.7z"/>
		<path class="st1" d="M106.8,8c-1.4-1-3-1.4-6.2-1.4H90.1c-0.5,0-0.9,0.4-0.9,0.9v24c0,0.5,0.4,0.9,0.9,0.9h11.1
			c3,0,5.1-0.1,6.9-1.4c2-1.5,2.4-4,2.4-5.8c0-2.4-0.8-4.3-2.3-5.4c-0.6-0.5-1.4-0.8-2.1-1l-0.5-0.2l0.5-0.2c2.2-1,3-2.5,2.9-5.3
			C108.9,11.7,108.6,9.3,106.8,8z M94.6,10.2h5.9c3.1,0,3.3,1.6,3.3,3.6c0,2.4-1.1,3.5-3.7,3.5h-5.5V10.2z M100.4,28.7h-5.8v-7.8
			h6.2c3.4,0,4.1,1.5,4.1,3.9C104.9,28.1,103.7,28.7,100.4,28.7z"/>
	</g>
	<g>
		<path class="st1" d="M123.4,16.1l-0.7-1.8h-2.8l-0.7,1.8h-2l3.4-8.6h1.4l3.4,8.6H123.4z M121.6,11c0-0.1-0.1-0.3-0.1-0.4
			c0-0.2-0.1-0.3-0.1-0.5h0c0,0.2-0.1,0.3-0.1,0.5c0,0.2-0.1,0.3-0.1,0.4l-0.6,1.7h1.8L121.6,11z"/>
		<path class="st1" d="M130.4,14.3c0,0.3,0,0.5-0.1,0.7c-0.1,0.2-0.2,0.4-0.4,0.6c-0.2,0.2-0.4,0.3-0.8,0.4
			c-0.3,0.1-0.7,0.2-1.1,0.2c-0.4,0-0.8-0.1-1.1-0.2c-0.3-0.1-0.6-0.2-0.8-0.4l-0.2-1.7c0.3,0.2,0.6,0.4,0.9,0.5
			c0.4,0.1,0.7,0.2,1.1,0.2c0.2,0,0.4,0,0.5-0.1c0.1-0.1,0.2-0.2,0.2-0.3c0-0.2-0.1-0.3-0.2-0.3c-0.1-0.1-0.3-0.2-0.5-0.3
			c-0.6-0.2-1-0.5-1.3-0.8c-0.3-0.3-0.5-0.7-0.5-1.2c0-0.3,0.1-0.5,0.2-0.8c0.1-0.2,0.3-0.4,0.5-0.6c0.2-0.2,0.4-0.3,0.7-0.4
			c0.3-0.1,0.6-0.1,0.9-0.1c0.4,0,0.7,0,1,0.1c0.3,0.1,0.5,0.2,0.7,0.3l-0.1,1.5c-0.2-0.1-0.3-0.2-0.6-0.3c-0.2-0.1-0.5-0.1-0.8-0.1
			c-0.2,0-0.3,0-0.4,0.1c-0.1,0.1-0.1,0.2-0.1,0.3c0,0.1,0.1,0.2,0.2,0.3c0.1,0.1,0.3,0.2,0.6,0.3c0.6,0.2,1,0.5,1.3,0.8
			C130.2,13.4,130.4,13.8,130.4,14.3z"/>
		<path class="st1" d="M135.6,14.3c0,0.3,0,0.5-0.1,0.7c-0.1,0.2-0.2,0.4-0.4,0.6c-0.2,0.2-0.4,0.3-0.8,0.4
			c-0.3,0.1-0.7,0.2-1.1,0.2c-0.4,0-0.8-0.1-1.1-0.2c-0.3-0.1-0.6-0.2-0.8-0.4l-0.2-1.7c0.3,0.2,0.6,0.4,0.9,0.5
			c0.4,0.1,0.7,0.2,1.1,0.2c0.2,0,0.4,0,0.5-0.1c0.1-0.1,0.2-0.2,0.2-0.3c0-0.2-0.1-0.3-0.2-0.3c-0.1-0.1-0.3-0.2-0.5-0.3
			c-0.6-0.2-1-0.5-1.3-0.8c-0.3-0.3-0.5-0.7-0.5-1.2c0-0.3,0.1-0.5,0.2-0.8c0.1-0.2,0.3-0.4,0.5-0.6c0.2-0.2,0.4-0.3,0.7-0.4
			c0.3-0.1,0.6-0.1,0.9-0.1c0.4,0,0.7,0,1,0.1c0.3,0.1,0.5,0.2,0.7,0.3l-0.1,1.5c-0.2-0.1-0.3-0.2-0.6-0.3c-0.2-0.1-0.5-0.1-0.8-0.1
			c-0.2,0-0.3,0-0.4,0.1c-0.1,0.1-0.1,0.2-0.1,0.3c0,0.1,0.1,0.2,0.2,0.3c0.1,0.1,0.3,0.2,0.6,0.3c0.6,0.2,1,0.5,1.3,0.8
			C135.4,13.4,135.6,13.8,135.6,14.3z"/>
		<path class="st1" d="M142.2,12.2c0,0.2,0,0.4-0.1,0.6l-0.8,0.8h-3c0,0.1,0.1,0.3,0.2,0.4c0.1,0.1,0.2,0.3,0.4,0.4s0.3,0.2,0.5,0.3
			c0.2,0.1,0.4,0.1,0.7,0.1c0.3,0,0.7,0,0.9-0.1c0.3-0.1,0.6-0.2,0.8-0.3l-0.2,1.6c-0.2,0.1-0.5,0.2-0.8,0.2
			c-0.3,0.1-0.7,0.1-1.1,0.1c-0.5,0-1-0.1-1.4-0.2c-0.4-0.2-0.8-0.4-1.1-0.7c-0.3-0.3-0.6-0.6-0.8-1c-0.2-0.4-0.3-0.9-0.3-1.3
			c0-0.5,0.1-0.9,0.3-1.3c0.2-0.4,0.4-0.7,0.7-1s0.6-0.5,1-0.6c0.4-0.1,0.8-0.2,1.2-0.2c0.4,0,0.8,0.1,1.1,0.2
			c0.3,0.1,0.6,0.3,0.9,0.5c0.2,0.2,0.4,0.5,0.5,0.8C142.1,11.6,142.2,11.9,142.2,12.2z M140.4,12.2c0-0.2-0.1-0.5-0.2-0.6
			c-0.2-0.2-0.4-0.3-0.7-0.3c-0.3,0-0.6,0.1-0.8,0.3c-0.2,0.2-0.4,0.4-0.4,0.8h2.1C140.4,12.3,140.4,12.3,140.4,12.2z"/>
		<path class="st1" d="M147.4,11.6h-1.7v2.2c0,0.2,0.1,0.4,0.2,0.5c0.1,0.1,0.3,0.2,0.5,0.2c0.3,0,0.5,0,0.6-0.1l-0.1,1.6
			c-0.2,0.1-0.5,0.1-0.9,0.1c-0.3,0-0.6-0.1-0.9-0.2c-0.3-0.1-0.5-0.2-0.7-0.4c-0.2-0.2-0.4-0.4-0.5-0.7s-0.2-0.5-0.2-0.8v-2.5h-1
			V10h1.1V8.8l1.9-0.7V10h1.9L147.4,11.6z"/>
		<path class="st1" d="M125.5,29l-0.3-3.2c0-0.3,0-0.5-0.1-0.8c0-0.3,0-0.5,0-0.8h0c-0.1,0.3-0.2,0.6-0.3,0.8
			c-0.1,0.3-0.3,0.5-0.4,0.8l-1.6,3.1H122l-1.6-3.1c-0.1-0.3-0.3-0.5-0.4-0.8c-0.1-0.3-0.2-0.5-0.3-0.8h0c0,0.3,0,0.6,0,0.8
			c0,0.3,0,0.5-0.1,0.8l-0.3,3.2h-2l0.7-8.6h1.7l1.9,3.6c0.1,0.3,0.3,0.5,0.4,0.9c0.2,0.3,0.3,0.7,0.4,0.9h0
			c0.1-0.3,0.2-0.6,0.4-0.9c0.1-0.3,0.3-0.6,0.4-0.9l1.9-3.6h1.7l0.8,8.6H125.5z"/>
		<path class="st1" d="M133.5,29.2c-0.6,0-1-0.3-1.3-0.7c-0.2,0.2-0.5,0.4-0.8,0.5c-0.3,0.1-0.6,0.2-0.9,0.2c-0.3,0-0.6,0-0.9-0.1
			c-0.3-0.1-0.5-0.2-0.7-0.4c-0.2-0.2-0.4-0.4-0.5-0.6c-0.1-0.2-0.2-0.5-0.2-0.8c0-0.6,0.2-1,0.6-1.4c0.4-0.3,0.9-0.5,1.5-0.6
			l1.2-0.1v-0.2c0-0.2-0.1-0.3-0.2-0.5c-0.1-0.1-0.4-0.2-0.7-0.2c-0.3,0-0.7,0-1,0.1c-0.3,0.1-0.6,0.2-0.8,0.3l-0.1-1.5
			c0.2-0.1,0.5-0.2,0.9-0.3c0.4-0.1,0.8-0.1,1.1-0.1c0.9,0,1.5,0.2,2,0.6c0.5,0.4,0.7,1,0.7,1.8v1.7c0,0.3,0.1,0.5,0.2,0.6
			c0.1,0.1,0.3,0.2,0.5,0.3L133.5,29.2z M131.6,26.3l-0.8,0.1c-0.3,0-0.5,0.1-0.6,0.3c-0.1,0.2-0.2,0.3-0.2,0.5
			c0,0.2,0.1,0.3,0.2,0.4c0.1,0.1,0.3,0.2,0.5,0.2c0.2,0,0.5-0.1,0.7-0.3c0.2-0.2,0.3-0.4,0.3-0.6V26.3z"/>
		<path class="st1" d="M138.5,29v-3.6c0-0.2-0.1-0.4-0.2-0.6c-0.2-0.2-0.4-0.3-0.7-0.3c-0.3,0-0.5,0.1-0.7,0.3
			c-0.2,0.2-0.3,0.4-0.3,0.6V29h-2v-6.1h1.7l0.1,0.6c0.2-0.2,0.4-0.4,0.7-0.6c0.3-0.1,0.7-0.2,1.1-0.2c0.3,0,0.6,0.1,0.9,0.2
			c0.3,0.1,0.5,0.2,0.7,0.4c0.2,0.2,0.4,0.4,0.5,0.7c0.1,0.3,0.2,0.6,0.2,0.9V29H138.5z"/>
		<path class="st1" d="M146.3,29.2c-0.6,0-1-0.3-1.3-0.7c-0.2,0.2-0.5,0.4-0.8,0.5c-0.3,0.1-0.6,0.2-0.9,0.2c-0.3,0-0.6,0-0.9-0.1
			c-0.3-0.1-0.5-0.2-0.7-0.4c-0.2-0.2-0.4-0.4-0.5-0.6c-0.1-0.2-0.2-0.5-0.2-0.8c0-0.6,0.2-1,0.6-1.4c0.4-0.3,0.9-0.5,1.5-0.6
			l1.2-0.1v-0.2c0-0.2-0.1-0.3-0.2-0.5c-0.1-0.1-0.4-0.2-0.7-0.2c-0.3,0-0.7,0-1,0.1c-0.3,0.1-0.6,0.2-0.8,0.3l-0.1-1.5
			c0.2-0.1,0.5-0.2,0.9-0.3c0.4-0.1,0.8-0.1,1.1-0.1c0.9,0,1.5,0.2,2,0.6c0.5,0.4,0.7,1,0.7,1.8v1.7c0,0.3,0.1,0.5,0.2,0.6
			c0.1,0.1,0.3,0.2,0.5,0.3L146.3,29.2z M144.5,26.3l-0.8,0.1c-0.3,0-0.5,0.1-0.6,0.3c-0.1,0.2-0.2,0.3-0.2,0.5
			c0,0.2,0.1,0.3,0.2,0.4c0.1,0.1,0.3,0.2,0.5,0.2c0.2,0,0.5-0.1,0.7-0.3c0.2-0.2,0.3-0.4,0.3-0.6V26.3z"/>
		<path class="st1" d="M153.1,30c0,0.3-0.1,0.6-0.2,0.9c-0.1,0.3-0.3,0.5-0.6,0.7c-0.3,0.2-0.6,0.4-0.9,0.5
			c-0.4,0.1-0.8,0.2-1.2,0.2c-0.4,0-0.8-0.1-1.2-0.2c-0.4-0.1-0.7-0.3-0.9-0.5c-0.3-0.2-0.5-0.4-0.6-0.7c-0.1-0.3-0.2-0.6-0.2-0.9
			c0-0.4,0.1-0.8,0.3-1.1c0.2-0.3,0.5-0.5,0.8-0.6l-0.7-0.7c0-0.2,0.1-0.4,0.3-0.5c0.1-0.2,0.3-0.3,0.4-0.4
			c-0.2-0.2-0.4-0.4-0.6-0.7c-0.2-0.3-0.2-0.6-0.2-0.9c0-0.3,0.1-0.6,0.2-0.9c0.1-0.3,0.3-0.5,0.5-0.7c0.2-0.2,0.5-0.4,0.8-0.5
			c0.3-0.1,0.7-0.2,1.1-0.2c0.2,0,0.3,0,0.5,0c0.1,0,0.3,0.1,0.4,0.1c0.1,0,0.3,0.1,0.4,0.1c0.1,0,0.3,0,0.5,0c0.2,0,0.4,0,0.6-0.1
			c0.2,0,0.3-0.1,0.5-0.2l0.1,1.5c0,0-0.1,0.1-0.2,0.1c-0.1,0-0.2,0-0.3,0c0.1,0.1,0.1,0.3,0.1,0.5c0,0.3,0,0.6-0.1,0.8
			c-0.1,0.2-0.2,0.5-0.4,0.7c-0.2,0.2-0.4,0.3-0.6,0.5c-0.2,0.1-0.5,0.2-0.8,0.2c-0.1,0-0.2,0-0.3,0.1c-0.1,0-0.1,0.1-0.1,0.2
			c0,0.1,0.1,0.2,0.2,0.2l1,0.3c0.6,0.2,1,0.5,1.4,0.8C152.9,29,153.1,29.4,153.1,30z M151.3,30c0-0.2-0.1-0.3-0.2-0.5
			c-0.1-0.1-0.3-0.2-0.5-0.3l-0.8-0.2c-0.3,0-0.5,0.1-0.7,0.3c-0.2,0.2-0.3,0.4-0.3,0.6c0,0.2,0.1,0.4,0.3,0.6
			c0.2,0.2,0.5,0.3,0.9,0.3c0.4,0,0.7-0.1,0.9-0.2C151.2,30.4,151.3,30.2,151.3,30z M150.9,24.9c0-0.2-0.1-0.4-0.2-0.6
			c-0.2-0.2-0.4-0.2-0.6-0.2c-0.2,0-0.4,0.1-0.6,0.2c-0.2,0.2-0.2,0.3-0.2,0.6c0,0.2,0.1,0.4,0.2,0.6c0.2,0.2,0.4,0.2,0.6,0.2
			c0.2,0,0.4-0.1,0.6-0.2C150.8,25.3,150.9,25.1,150.9,24.9z"/>
		<path class="st1" d="M159.3,25.1c0,0.2,0,0.4-0.1,0.6l-0.8,0.8h-3c0,0.1,0.1,0.3,0.2,0.4c0.1,0.1,0.2,0.3,0.4,0.4
			c0.1,0.1,0.3,0.2,0.5,0.3c0.2,0.1,0.4,0.1,0.7,0.1c0.3,0,0.7,0,0.9-0.1c0.3-0.1,0.6-0.2,0.8-0.3l-0.2,1.6
			c-0.2,0.1-0.5,0.2-0.8,0.2c-0.3,0.1-0.7,0.1-1.1,0.1c-0.5,0-1-0.1-1.4-0.2c-0.4-0.2-0.8-0.4-1.1-0.7c-0.3-0.3-0.6-0.6-0.8-1
			c-0.2-0.4-0.3-0.9-0.3-1.3c0-0.5,0.1-0.9,0.3-1.3c0.2-0.4,0.4-0.7,0.7-1s0.6-0.5,1-0.6c0.4-0.1,0.8-0.2,1.2-0.2
			c0.4,0,0.8,0.1,1.1,0.2c0.3,0.1,0.6,0.3,0.9,0.5c0.2,0.2,0.4,0.5,0.5,0.8S159.3,24.8,159.3,25.1z M157.5,25.1
			c0-0.2-0.1-0.5-0.2-0.6c-0.2-0.2-0.4-0.3-0.7-0.3c-0.3,0-0.6,0.1-0.8,0.3c-0.2,0.2-0.4,0.4-0.5,0.8h2.1
			C157.5,25.2,157.5,25.2,157.5,25.1z"/>
		<path class="st1" d="M167.6,29v-3.7c0-0.2-0.1-0.4-0.2-0.5c-0.2-0.1-0.4-0.2-0.6-0.2c-0.3,0-0.5,0.1-0.7,0.2
			c-0.2,0.1-0.3,0.3-0.3,0.5V29h-2v-3.7c0-0.2-0.1-0.4-0.2-0.5c-0.2-0.1-0.4-0.2-0.7-0.2c-0.3,0-0.5,0.1-0.7,0.2
			c-0.2,0.1-0.3,0.3-0.3,0.5V29h-2v-6.1h1.7l0.1,0.6c0.2-0.2,0.4-0.4,0.7-0.5c0.3-0.2,0.7-0.2,1.1-0.2c0.4,0,0.8,0.1,1,0.2
			c0.3,0.2,0.5,0.3,0.7,0.6c0.2-0.2,0.5-0.4,0.8-0.6c0.4-0.2,0.8-0.2,1.2-0.2c0.7,0,1.3,0.2,1.7,0.6c0.4,0.4,0.6,0.9,0.6,1.5V29
			H167.6z"/>
		<path class="st1" d="M176.2,25.1c0,0.2,0,0.4-0.1,0.6l-0.8,0.8h-3c0,0.1,0.1,0.3,0.2,0.4c0.1,0.1,0.2,0.3,0.4,0.4
			c0.1,0.1,0.3,0.2,0.5,0.3c0.2,0.1,0.4,0.1,0.7,0.1c0.3,0,0.7,0,0.9-0.1c0.3-0.1,0.6-0.2,0.8-0.3l-0.2,1.6
			c-0.2,0.1-0.5,0.2-0.8,0.2c-0.3,0.1-0.7,0.1-1.1,0.1c-0.5,0-1-0.1-1.4-0.2c-0.4-0.2-0.8-0.4-1.1-0.7c-0.3-0.3-0.6-0.6-0.8-1
			c-0.2-0.4-0.3-0.9-0.3-1.3c0-0.5,0.1-0.9,0.3-1.3c0.2-0.4,0.4-0.7,0.7-1c0.3-0.3,0.6-0.5,1-0.6c0.4-0.1,0.8-0.2,1.2-0.2
			c0.4,0,0.8,0.1,1.1,0.2c0.3,0.1,0.6,0.3,0.9,0.5c0.2,0.2,0.4,0.5,0.5,0.8C176.2,24.5,176.2,24.8,176.2,25.1z M174.4,25.1
			c0-0.2-0.1-0.5-0.2-0.6c-0.2-0.2-0.4-0.3-0.7-0.3c-0.3,0-0.6,0.1-0.8,0.3c-0.2,0.2-0.4,0.4-0.4,0.8h2.1
			C174.4,25.2,174.4,25.2,174.4,25.1z"/>
		<path class="st1" d="M180.7,29v-3.6c0-0.2-0.1-0.4-0.2-0.6c-0.2-0.2-0.4-0.3-0.7-0.3c-0.3,0-0.5,0.1-0.7,0.3
			c-0.2,0.2-0.3,0.4-0.3,0.6V29h-2v-6.1h1.7l0.1,0.6c0.2-0.2,0.4-0.4,0.7-0.6c0.3-0.1,0.7-0.2,1.1-0.2c0.3,0,0.6,0.1,0.9,0.2
			c0.3,0.1,0.5,0.2,0.7,0.4c0.2,0.2,0.4,0.4,0.5,0.7c0.1,0.3,0.2,0.6,0.2,0.9V29H180.7z"/>
		<path class="st1" d="M187.9,24.5h-1.7v2.2c0,0.2,0.1,0.4,0.2,0.5c0.1,0.1,0.3,0.2,0.5,0.2c0.3,0,0.5,0,0.6-0.1l-0.1,1.6
			c-0.2,0.1-0.5,0.1-0.9,0.1c-0.3,0-0.6-0.1-0.9-0.2c-0.3-0.1-0.5-0.2-0.7-0.4c-0.2-0.2-0.4-0.4-0.5-0.7c-0.1-0.3-0.2-0.5-0.2-0.8
			v-2.5h-1v-1.6h1.1v-1.2l1.9-0.7v1.9h1.9L187.9,24.5z"/>
	</g>
</g>
</svg>
