<?xml version="1.0" encoding="UTF-8" standalone="no"?>
<svg width="19px" height="15px" viewBox="0 0 19 15" version="1.1" xmlns="http://www.w3.org/2000/svg" xmlns:xlink="http://www.w3.org/1999/xlink">
    <!-- Generator: Sketch 39.1 (31720) - http://www.bohemiancoding.com/sketch -->
    <title>Shape</title>
    <desc>Created with Sketch.</desc>
    <defs></defs>
    <g id="desktop" stroke="none" stroke-width="1" fill="none" fill-rule="evenodd">
        <g id="01_home" transform="translate(-867.000000, -1939.000000)" fill="#FFFFFF">
            <g id="footer" transform="translate(0.000000, 1801.000000)">
                <g id="newsletter">
                    <g transform="translate(581.000000, 126.000000)">
                        <g id="subsrcibe" transform="translate(0.000000, 4.000000)">
                            <path d="M304.999399,8.3518461 C304.999508,8.34965391 304.99958,8.34749766 304.999653,8.34530547 C304.999725,8.34278984 304.99958,8.34031014 304.99958,8.33779451 C304.99958,8.33312263 304.999653,8.32845075 304.999435,8.3238148 C304.999254,8.31986167 304.998819,8.31594447 304.998457,8.31202728 C304.998421,8.31152415 304.998384,8.31098509 304.998312,8.31048196 C304.998094,8.30821789 304.998022,8.30591789 304.997732,8.30365382 C304.997442,8.30110225 304.99708,8.29858662 304.996717,8.29607099 C304.996174,8.29236942 304.995377,8.28870379 304.994688,8.28500222 C304.993746,8.27986315 304.99284,8.27472408 304.991572,8.26962094 C304.991427,8.26908188 304.991318,8.26854282 304.991173,8.26800375 C304.990267,8.26440999 304.989071,8.26088811 304.98802,8.25729436 C304.986571,8.25229903 304.985157,8.24733965 304.983418,8.2424162 C304.982584,8.24004432 304.981642,8.23774432 304.980772,8.23540837 C304.979939,8.23325212 304.978997,8.23120368 304.978127,8.22904742 C304.978127,8.22901149 304.978091,8.22893961 304.978055,8.22890367 C304.976388,8.22484273 304.974829,8.22078178 304.972981,8.21679271 C304.970916,8.21233645 304.968524,8.20805988 304.966241,8.20371144 C304.965117,8.20155518 304.96403,8.19939893 304.962834,8.19727861 C304.96182,8.19548173 304.960914,8.19368486 304.959863,8.19192391 C304.956275,8.18592234 304.952289,8.18006452 304.948267,8.17427857 C304.946962,8.17240981 304.945875,8.17043325 304.944534,8.16856449 C304.944462,8.16845668 304.944389,8.16838481 304.944317,8.16827699 C304.944135,8.16802543 304.943918,8.16777387 304.943737,8.1675223 C304.940149,8.16267073 304.936127,8.15803478 304.932177,8.1533629 C304.929713,8.15045196 304.927393,8.14736133 304.924857,8.14459413 C304.923733,8.14337226 304.922501,8.14218632 304.921342,8.1409285 C304.91953,8.13898787 304.917536,8.13719099 304.915652,8.13532224 C304.911666,8.13133317 304.907752,8.12727222 304.903585,8.12353472 C304.903331,8.12328315 304.903077,8.12303159 304.902824,8.12278003 C304.90112,8.12127065 304.899309,8.12004877 304.897569,8.11861127 C304.896772,8.11792846 304.895938,8.11728158 304.895105,8.11659877 C304.893873,8.11555658 304.892822,8.11437064 304.891554,8.11336438 C304.89072,8.11271751 304.889814,8.11225032 304.888981,8.11156751 C304.886263,8.10944719 304.883617,8.10729093 304.880863,8.10527843 C304.878182,8.1033378 304.875355,8.10164874 304.872637,8.09977998 C304.867564,8.09636591 304.86249,8.09291591 304.857236,8.08986121 C304.853395,8.08759715 304.849408,8.08565652 304.845495,8.08360808 C304.841218,8.08134401 304.836979,8.079044 304.832594,8.07699556 C304.830782,8.076169 304.82897,8.0753065 304.827122,8.07451587 C304.825962,8.07401274 304.824802,8.07365337 304.823643,8.07315024 C304.821758,8.07235962 304.819874,8.0716768 304.81799,8.07092211 C304.814293,8.06944867 304.810633,8.06790336 304.806901,8.06657367 C304.802878,8.06513616 304.79882,8.06398616 304.794761,8.06276428 C304.792405,8.06204553 304.790086,8.06132678 304.787694,8.06067991 C304.785194,8.05999709 304.782693,8.0592424 304.780157,8.05859553 C304.774793,8.05726584 304.769394,8.05629552 304.763958,8.05525333 C304.760914,8.05467833 304.757906,8.0538877 304.754826,8.05342052 C304.754029,8.0533127 304.753195,8.05327677 304.752398,8.05313302 C304.747397,8.05241426 304.74236,8.05198301 304.737359,8.05151582 C304.733047,8.05112051 304.728771,8.05065332 304.724458,8.05040176 C304.722501,8.05029395 304.720581,8.05018613 304.718624,8.0501502 C304.716341,8.05007832 304.714058,8.05022207 304.711775,8.05022207 L304.710796,8.05022207 C304.705941,8.05022207 304.701085,8.0501502 304.696229,8.05036582 C304.692351,8.05054551 304.688474,8.05097676 304.684596,8.0513002 C304.682023,8.05151582 304.67945,8.05165957 304.676877,8.05194708 C304.673978,8.05227051 304.671115,8.05259395 304.668253,8.0530252 C304.664411,8.05356427 304.660606,8.05439083 304.656765,8.05507364 C304.651982,8.05597208 304.647162,8.05672677 304.642415,8.05784084 C304.641871,8.05798459 304.641327,8.05816428 304.640748,8.05830803 C304.636725,8.05927834 304.632739,8.06053615 304.628753,8.06168616 C304.623861,8.06308772 304.618968,8.06445335 304.614149,8.06614242 C304.611793,8.06693304 304.60951,8.06786742 304.607191,8.06872992 C304.606575,8.06894555 304.605959,8.0690893 304.605343,8.06930492 L286.631103,14.9693185 C286.519343,15.012228 286.445707,15.1188907 286.445852,15.2377363 C286.445961,15.3565818 286.519851,15.4631008 286.631682,15.5057587 L291.990506,17.5497439 L293.707662,22.8011215 C293.707916,22.8018762 293.708315,22.802523 293.708568,22.8032418 C293.709076,22.8047871 293.709438,22.8063684 293.709982,22.8079137 C293.71404,22.8193778 293.719077,22.8305184 293.724622,22.8414794 C293.725782,22.8437434 293.726977,22.8459356 293.728173,22.8481638 C293.733573,22.8581903 293.739516,22.8679654 293.746184,22.877381 C293.747054,22.8786388 293.747815,22.8799685 293.74872,22.8811904 C293.749155,22.8818013 293.74959,22.8824123 293.750061,22.8830232 C293.750569,22.8836701 293.751112,22.8842451 293.75162,22.8849279 C293.753794,22.8878029 293.756222,22.8905701 293.758541,22.8933732 C293.761295,22.8967514 293.763904,22.9002014 293.766803,22.9034717 C293.76905,22.9059514 293.771514,22.9082514 293.77387,22.9106592 C293.774957,22.9117733 293.776044,22.9128873 293.777131,22.9140014 C293.778798,22.9156545 293.780357,22.9174155 293.78206,22.9190327 C293.783835,22.9207217 293.785539,22.9224467 293.787351,22.9240999 C293.78909,22.9256811 293.790974,22.9271186 293.792786,22.928628 C293.798367,22.9334796 293.80402,22.9381874 293.809963,22.9426436 C293.810326,22.9429311 293.810652,22.9432186 293.811014,22.9435061 C293.811558,22.9439015 293.81221,22.944189 293.812754,22.9445843 C293.814566,22.945878 293.816414,22.947064 293.818226,22.9483218 C293.827539,22.9547546 293.837323,22.9606843 293.847506,22.966039 C293.849173,22.9669015 293.850732,22.9680156 293.852399,22.9688421 C293.852942,22.9691296 293.853486,22.9693093 293.854029,22.9695968 C293.863596,22.9743046 293.873417,22.9786531 293.883708,22.9823906 C293.885883,22.9831812 293.888093,22.9837203 293.890268,22.984439 C293.89313,22.9854093 293.895993,22.9862718 293.898892,22.9871343 C293.911358,22.9909078 293.923897,22.9939625 293.936472,22.9960469 C293.937051,22.9961547 293.937595,22.9963344 293.938175,22.9964422 C293.939371,22.9966219 293.940566,22.9965859 293.941762,22.9967656 C293.955642,22.9987781 293.969557,23 293.983328,23 L293.983364,23 L293.983364,23 L293.9834,23 C293.984524,23 293.985611,22.9997484 293.986734,22.9997484 C293.998657,22.9996047 294.010543,22.9986344 294.022357,22.9970531 C294.024132,22.9968016 294.025944,22.9968375 294.027684,22.9965859 C294.03022,22.9961906 294.032757,22.9952922 294.035294,22.994825 C294.044462,22.9931719 294.053522,22.9910875 294.062509,22.9885359 C294.065444,22.9877094 294.068416,22.9871703 294.071315,22.9862718 C294.071822,22.9861281 294.072329,22.9860562 294.072837,22.9859125 C294.074214,22.9854812 294.075518,22.9848343 294.076895,22.9843672 C294.081208,22.9829297 294.085411,22.9812047 294.089651,22.9795515 C294.095304,22.9773234 294.100921,22.9750593 294.106357,22.9725437 C294.107191,22.9721843 294.108024,22.9718968 294.108858,22.9715015 C294.109329,22.9712499 294.109872,22.9711062 294.110343,22.9708906 C294.113061,22.9695968 294.115634,22.9680156 294.118316,22.966614 C294.123933,22.9637031 294.129405,22.9606124 294.134768,22.957378 C294.138319,22.9552218 294.141835,22.9530655 294.145277,22.9507655 C294.145313,22.9507296 294.14535,22.9507296 294.145386,22.9506937 C294.146401,22.9500108 294.147451,22.9494358 294.148466,22.948753 C294.153286,22.9454468 294.157852,22.9418171 294.162454,22.9382593 C294.165136,22.9361749 294.167854,22.9342342 294.170463,22.9320421 C294.173326,22.9296342 294.17608,22.9270827 294.178834,22.924567 C294.180972,22.9226623 294.183001,22.9206498 294.185103,22.9186373 C294.194018,22.9100483 294.202498,22.9010639 294.210216,22.8914685 C294.210869,22.8906779 294.211557,22.8899232 294.212209,22.8890967 C294.213043,22.8880185 294.213768,22.8868326 294.214565,22.8857545 C294.215181,22.8849638 294.215906,22.884281 294.216522,22.8834545 L296.334909,20.044566 C296.430144,19.9169158 296.403037,19.7369045 296.274319,19.6424606 C296.145636,19.5480166 295.964046,19.5749339 295.868847,19.7025482 L294.948465,20.9359975 L295.679973,18.9556217 L302.604114,21.5618503 C302.637381,21.5743566 302.672242,21.5805738 302.706959,21.5805738 C302.757656,21.5805738 302.808136,21.5673847 302.853036,21.5414377 C302.928629,21.4977017 302.980269,21.4224485 302.993532,21.3366655 L304.996609,8.38109929 C304.996717,8.38048835 304.996681,8.37987741 304.996754,8.37926647 C304.997442,8.37448677 304.997841,8.36970708 304.998312,8.36492738 C304.99871,8.36057893 304.999182,8.35623049 304.999399,8.3518461 L304.999399,8.3518461 Z M302.737073,9.40319974 L294.45642,15.3672912 C294.326868,15.4605851 294.298131,15.6403808 294.392206,15.7688576 C294.448919,15.8463031 294.53734,15.8874157 294.626994,15.8874157 C294.686063,15.8874157 294.745675,15.8695547 294.797133,15.832503 L302.707393,10.1351762 L295.304145,18.3790393 C295.275408,18.4071425 295.251961,18.4414988 295.236705,18.4813895 C295.234096,18.4881458 295.232103,18.4950099 295.230037,18.501838 L294.000106,21.8315618 L292.499366,17.2420824 C292.471354,17.1564072 292.406596,17.0927977 292.328031,17.0626461 C292.327596,17.0624664 292.327197,17.0622508 292.326726,17.0620711 L287.541085,15.2366941 L302.737073,9.40319974 L302.737073,9.40319974 Z M302.474671,20.8981912 L296.005104,18.4630614 L304.274957,9.25423851 L302.474671,20.8981912 L302.474671,20.8981912 Z" id="Shape"></path>
                        </g>
                    </g>
                </g>
            </g>
        </g>
    </g>
</svg>