<?xml version="1.0" encoding="UTF-8" standalone="no"?>
<svg width="25px" height="27px" viewBox="0 0 25 27" version="1.1" xmlns="http://www.w3.org/2000/svg" xmlns:xlink="http://www.w3.org/1999/xlink">
    <!-- Generator: Sketch 39.1 (31720) - http://www.bohemiancoding.com/sketch -->
    <title>telephone</title>
    <desc>Created with Sketch.</desc>
    <defs></defs>
    <g id="desktop" stroke="none" stroke-width="1" fill="none" fill-rule="evenodd">
        <g id="01_home" transform="translate(-937.000000, -1933.000000)" fill="#009AD9">
            <g id="footer" transform="translate(0.000000, 1801.000000)">
                <g id="telephone">
                    <g transform="translate(950.186664, 146.240370) rotate(3.000000) translate(-950.186664, -146.240370) translate(936.686664, 132.740370)">
                        <g id="Capa_1" transform="translate(0.341158, 0.075694)">
                            <path d="M24.4400092,18.864542 L20.8029116,15.2258829 C20.3144674,14.7399371 19.6603978,14.4721881 18.9614605,14.4721881 C18.2341034,14.4721881 17.5473459,14.7585713 17.0280877,15.2781418 L15.6123076,16.6936097 C14.5121631,16.0821176 13.0499537,15.2410817 11.5318417,13.7229698 C10.0154995,12.206107 9.17435957,10.7481658 8.55974441,9.64208753 L9.9768779,8.22599506 C11.030489,7.17019782 11.052038,5.4763626 10.0250769,4.45033838 L6.38870799,0.813865392 C5.90161715,0.325421235 5.24754754,0.0564230036 4.54684046,0.0564230036 C3.83572323,0.0564230036 3.16301945,0.330209903 2.6467802,0.828543701 C2.33447575,1.08005288 0.767227927,2.46356159 0.183114508,5.31677502 C-0.63470674,9.3104202 1.24432502,13.15291 6.66884508,18.5796162 C12.7284883,24.6373856 17.9016033,25.1082366 19.3427842,25.1082366 C19.6428047,25.1082366 19.8238371,25.0897065 19.8721402,25.0840851 C22.6981832,24.7528341 23.7100496,23.4977867 24.4488578,22.5813813 C25.4061751,21.3936875 25.4028438,19.830916 24.4400092,18.864542 L24.4400092,18.864542 Z M23.2331607,21.6012659 C22.5386997,22.4626015 21.8828604,23.2760505 19.6904831,23.5330771 C19.689338,23.5331812 19.5694131,23.5466103 19.3427842,23.5466103 C18.0533832,23.5466103 13.4081669,23.1087594 7.77304951,17.4754118 C2.77066096,12.4709412 1.01488535,9.03902764 1.7128858,5.62991228 C2.22235845,3.14126224 3.57494902,2.08348707 3.62752027,2.0433039 L3.67415773,2.00884631 L3.71506961,1.96783033 C3.94086573,1.74224241 4.23620163,1.61794524 4.54673636,1.61794524 C4.82947598,1.61794524 5.09097891,1.72392055 5.28377485,1.91734111 L8.92097656,5.55464691 C9.33946452,5.97271847 9.3171868,6.67623629 8.87194476,7.12241524 L7.26930243,8.72370425 L7.24296476,8.75129114 C6.82530961,9.21131559 6.87444551,9.83300965 7.10450979,10.2378603 C7.76836494,11.4358602 8.67769139,13.0766036 10.4274291,14.8268619 C12.1713372,16.5707699 13.8096863,17.4793677 15.0043549,18.1419736 C15.1239675,18.209119 15.3708962,18.3217569 15.6799735,18.3217569 C16.0449533,18.3217569 16.380056,18.1672702 16.6281298,17.8856757 L18.1321881,16.3820339 C18.3567349,16.1573829 18.6511339,16.0336063 18.9612523,16.0336063 C19.2446165,16.0336063 19.5074727,16.1398939 19.6998523,16.3312324 L23.3345555,19.9674972 C23.7962456,20.4308529 23.6056358,21.1392635 23.2331607,21.6012659 L23.2331607,21.6012659 Z" id="Shape"></path>
                            <path d="M15.2453498,3.88225659 C16.5869056,4.03663909 18.1665415,4.84925527 19.2696009,5.95241868 C20.3829662,7.06578404 21.1975603,8.66145156 21.3446557,10.0175816 C21.388066,10.4176436 21.7263958,10.7141246 22.1198994,10.7141246 C22.1480068,10.7141246 22.1765307,10.7125631 22.2050545,10.7095441 C22.6337444,10.6630108 22.9435504,10.2778353 22.897017,9.84914538 C22.7109877,8.13490626 21.7440931,6.21871027 20.3738053,4.84831835 C19.0163219,3.49073092 17.119697,2.52623068 15.4238839,2.3310404 C14.9957145,2.28138399 14.6083529,2.58910798 14.5590088,3.01738148 C14.5096647,3.44565498 14.8168681,3.83291249 15.2453498,3.88225659 L15.2453498,3.88225659 Z" id="Shape"></path>
                            <path d="M14.5159107,7.15291698 C15.2414981,7.23651047 16.245661,7.77471513 16.9034783,8.4325324 C17.566917,9.09607525 18.1061627,10.1098155 18.1855921,10.8432104 C18.2290024,11.2433765 18.5673322,11.5398576 18.9608359,11.5398576 C18.9889433,11.5398576 19.017363,11.538296 19.0458868,11.5352771 C19.4745767,11.4887437 19.7844868,11.1035682 19.7379534,10.6748783 C19.6022051,9.4227457 18.7709547,8.09180825 18.0074745,7.32832797 C17.2508649,6.5716143 15.9329401,5.74431981 14.6944448,5.60159668 C14.2656508,5.55173207 13.8788097,5.85956016 13.8294656,6.28783366 C13.7802256,6.71621126 14.0875331,7.10357287 14.5159107,7.15291698 L14.5159107,7.15291698 Z" id="Shape"></path>
                        </g>
                    </g>
                </g>
            </g>
        </g>
    </g>
</svg>